<?xml version="1.0"?>
<!-- Converted with SVG Converter - Version 0.9.5 (Compiled Mon May 30 09:08:51 2011) - Copyright (C) 2011 Nokia -->
<svg xmlns="http://www.w3.org/2000/svg" width="96" x="0px" y="0px" version="1.1" viewBox="0 0 96 96" height="96" xmlns:xlink="http://www.w3.org/1999/xlink" baseProfile="tiny" id="ORANGE_BACKGROUNDS" xml:space="preserve">
 <metadata id="metadata3069"/>
 <defs id="defs3067">
  <linearGradient id="linearGradient5113">
   <stop offset="0" style="stop-color:#64af2d;stop-opacity:1;" id="stop5115"/>
  </linearGradient>
  <linearGradient id="RED_x2F_ORANGE_5_2_-8" y1="8.0107002" x1="47.9995" y2="87.9897" gradientUnits="userSpaceOnUse" x2="47.9995">
   <stop offset="0" style="stop-color:#FFDB62" id="stop6363"/>
   <stop offset="0.1393" style="stop-color:#FAD15C" id="stop6365"/>
   <stop offset="0.3741" style="stop-color:#EDB74D" id="stop6367"/>
   <stop offset="0.4848" style="stop-color:#E6A844" id="stop6369"/>
   <stop offset="1" style="stop-color:#C96B25" id="stop6371"/>
  </linearGradient>
  <linearGradient id="HIGHLIGHTS_RO5_1_" y1="8.2559004" x1="47.9995" y2="87.504303" gradientUnits="userSpaceOnUse" x2="47.9995">
   <stop offset="0" style="stop-color:#FFFFFF" id="stop6375"/>
   <stop offset="0.0958" style="stop-color:#FDF8F5" id="stop6377"/>
   <stop offset="0.2579" style="stop-color:#F6E6DB" id="stop6379"/>
   <stop offset="0.4666" style="stop-color:#EBC9AF" id="stop6381"/>
   <stop offset="0.7136" style="stop-color:#DCA073" id="stop6383"/>
   <stop offset="0.9904" style="stop-color:#CA6D28" id="stop6385"/>
   <stop offset="1" style="stop-color:#C96B25" id="stop6387"/>
  </linearGradient>
  <linearGradient id="linearGradient4048" y1="8.2559004" x1="47.9995" y2="87.504303" gradientUnits="userSpaceOnUse" x2="47.9995">
   <stop offset="0" style="stop-color:#FFFFFF" id="stop6375"/>
   <stop offset="0.0958" style="stop-color:#FDF8F5" id="stop6377"/>
   <stop offset="0.2579" style="stop-color:#F6E6DB" id="stop6379"/>
   <stop offset="0.4666" style="stop-color:#EBC9AF" id="stop6381"/>
   <stop offset="0.7136" style="stop-color:#DCA073" id="stop6383"/>
   <stop offset="0.9904" style="stop-color:#CA6D28" id="stop6385"/>
   <stop offset="1" style="stop-color:#C96B25" id="stop6387"/>
  </linearGradient>
  <linearGradient id="linearGradient4051" y1="8.0107002" x1="47.9995" y2="87.9897" gradientUnits="userSpaceOnUse" x2="47.9995">
   <stop offset="0" style="stop-color:#FFDB62" id="stop6363"/>
   <stop offset="0.1393" style="stop-color:#FAD15C" id="stop6365"/>
   <stop offset="0.3741" style="stop-color:#EDB74D" id="stop6367"/>
   <stop offset="0.4848" style="stop-color:#E6A844" id="stop6369"/>
   <stop offset="1" style="stop-color:#C96B25" id="stop6371"/>
  </linearGradient>
  <linearGradient id="linearGradient5113-1">
   <stop offset="0" style="stop-color:#449311;stop-opacity:1;" id="stop5115-9"/>
  </linearGradient>
  <linearGradient id="linearGradient5113-1-5">
   <stop offset="0" style="stop-color:#128406;stop-opacity:1;" id="stop5115-9-0"/>
  </linearGradient>
  <linearGradient id="linearGradient5113-1-5-6">
   <stop offset="0" style="stop-color:#009351;stop-opacity:1;" id="stop5115-9-0-0"/>
  </linearGradient>
  <linearGradient id="linearGradient5113-1-5-6-8">
   <stop offset="0" style="stop-color:#1b34b2;stop-opacity:1;" id="stop5115-9-0-0-6"/>
  </linearGradient>
  <linearGradient id="linearGradient5113-1-5-0">
   <stop offset="0" style="stop-color:#0066a8;stop-opacity:1;" id="stop5115-9-0-9"/>
  </linearGradient>
  <linearGradient id="linearGradient5113-1-0">
   <stop offset="0" style="stop-color:#0082b6;stop-opacity:1;" id="stop5115-9-6"/>
  </linearGradient>
  <linearGradient id="linearGradient5113-3">
   <stop offset="0" style="stop-color:#0d9758;stop-opacity:1;" id="stop5115-8"/>
  </linearGradient>
  <linearGradient id="linearGradient5113-3-0">
   <stop offset="0" style="stop-color:#2c00a5;stop-opacity:1;" id="stop5115-8-6"/>
  </linearGradient>
  <linearGradient id="linearGradient5113-1-0-1">
   <stop offset="0" style="stop-color:#62226a;stop-opacity:1;" id="stop5115-9-6-8"/>
  </linearGradient>
  <linearGradient id="linearGradient5113-1-5-0-9">
   <stop offset="0" style="stop-color:#e50c98;stop-opacity:1;" id="stop5115-9-0-9-6"/>
  </linearGradient>
  <linearGradient id="linearGradient5113-1-5-6-8-7">
   <stop offset="0" style="stop-color:#ec297b;stop-opacity:1;" id="stop5115-9-0-0-6-8"/>
  </linearGradient>
  <linearGradient id="linearGradient5113-1-5-6-8-7-5">
   <stop offset="0" style="stop-color:#ff7a0d;stop-opacity:1;" id="stop5115-9-0-0-6-8-9"/>
  </linearGradient>
  <linearGradient id="linearGradient5113-1-5-0-9-4">
   <stop offset="0" style="stop-color:#ff5b00;stop-opacity:1;" id="stop5115-9-0-9-6-0"/>
  </linearGradient>
  <linearGradient id="linearGradient5113-1-0-1-6">
   <stop offset="0" style="stop-color:#f74000;stop-opacity:1;" id="stop5115-9-6-8-3"/>
  </linearGradient>
  <linearGradient id="linearGradient5113-3-0-1">
   <stop offset="0" style="stop-color:#e21429;stop-opacity:1;" id="stop5115-8-6-5"/>
  </linearGradient>
  <linearGradient id="linearGradient5113-1-5-6-8-7-5-3">
   <stop offset="0" style="stop-color:#e0e0e0;stop-opacity:1;" id="stop5115-9-0-0-6-8-9-7"/>
  </linearGradient>
  <linearGradient id="linearGradient5113-1-5-0-9-4-6">
   <stop offset="0" style="stop-color:#e8e8e8;stop-opacity:1;" id="stop5115-9-0-9-6-0-0"/>
  </linearGradient>
  <linearGradient id="linearGradient5113-1-0-1-6-6">
   <stop offset="0" style="stop-color:#f7d303;stop-opacity:1;" id="stop5115-9-6-8-3-5"/>
  </linearGradient>
  <linearGradient id="linearGradient5113-3-0-1-5">
   <stop offset="0" style="stop-color:#ffa300;stop-opacity:1;" id="stop5115-8-6-5-4"/>
  </linearGradient>
  <linearGradient id="linearGradient5113-1-5-0-9-4-6-4">
   <stop offset="0" style="stop-color:#d3d3d3;stop-opacity:1;" id="stop5115-9-0-9-6-0-0-6"/>
  </linearGradient>
  <linearGradient id="linearGradient5113-1-5-6-8-7-5-3-7">
   <stop offset="0" style="stop-color:#cecece;stop-opacity:1;" id="stop5115-9-0-0-6-8-9-7-1"/>
  </linearGradient>
  <linearGradient id="SVGID_1_" y1="39.117199" x1="48.452099" y2="70.455498" gradientUnits="userSpaceOnUse" x2="48.452099">
   <stop offset="0.3232" style="stop-color:#FAFCEF" id="stop4392-1"/>
   <stop offset="1" style="stop-color:#D0CBC5" id="stop4394-7"/>
  </linearGradient>
 </defs>
 <linearGradient id="RED_x2F_ORANGE_5_2_" y1="8.0107002" x1="47.9995" y2="87.9897" gradientUnits="userSpaceOnUse" x2="47.9995">
  <stop offset="0" style="stop-color:#FFDB62" id="stop3054"/>
  <stop offset="0.1393" style="stop-color:#FAD15C" id="stop3056"/>
  <stop offset="0.3741" style="stop-color:#EDB74D" id="stop3058"/>
  <stop offset="0.4848" style="stop-color:#E6A844" id="stop3060"/>
  <stop offset="1" style="stop-color:#C96B25" id="stop3062"/>
 </linearGradient>
 <g style="display:inline" id="layer5">
  <rect width="96" x="0" y="0" height="96" style="display:inline;fill:#000000;fill-opacity:0;stroke:none" id="rect3119"/>
 </g>
 <g style="display:inline" id="layer4">
  <path style="opacity:0.4" id="SHADOW" d="m 88.023,49 c 0,29.633 -10.364,40 -40,40 -29.635,0 -40,-10.367 -40,-40 0,-29.634 10.366,-40 40,-40 29.636,0 40,10.365 40,40 z"/>
 </g>
 <g style="display:inline" id="layer12">
  <path style="fill:url(#linearGradient4051);fill-opacity:1" id="RED_x2F_ORANGE_5_1_" d="m 8,47.988 c 0,29.634 10.365,40.001 40,40.001 29.637,0 40,-10.367 40,-40.001 C 88,19.004 78.074,8.459 49.909,8.01 H 46.092 C 17.928,8.459 8,19.004 8,47.988 Z"/>
  <path style="opacity:0.25;fill:url(#linearGradient4048)" id="HIGHLIGHTS_RO5" d="M 48,8 C 18.365,8 8,18.365 8,48 8,77.633 18.365,88 48,88 77.637,88 88,77.633 88,48 88,18.365 77.637,8 48,8 Z m 0,79.023 C 18.842,87.023 9,77.176 9,48 9,18.824 18.842,8.977 48,8.977 77.158,8.977 87,18.824 87,48 87,77.176 77.158,87.023 48,87.023 Z"/>
 </g>
 <g style="display:inline;filter:url(#filter59)" id="layer2">
  <g id="g2" transform="matrix(0.08938356,0,0,0.08938356,25.67572,25.769338)">
   <g fill="none" stroke-linecap="butt" id="g123" stroke-width="2">
    <path stroke="#db3f26" id="path1" d="M 342.99,63.13 280.74,63.05"/>
    <path stroke="#e15524" id="path2" d="m 280.74,63.05 -29.95,0.07"/>
    <path stroke="#db3f26" id="path3" d="m 250.79,63.12 -1.25,-0.61"/>
    <path stroke="#f06922" id="path4" d="m 280.74,63.05 0.05,60.89 q 0,0.53 0.53,0.53 15.02,0.07 29.92,0.01 0.53,-0.01 1.09,0.47"/>
    <path stroke="#f47221" id="path5" d="m 312.33,124.95 q -0.39,0.75 -0.4,1.55 -0.21,15.04 -0.06,29.59"/>
    <path stroke="#f57b21" id="path6" d="m 311.87,156.09 -0.35,30.84"/>
    <path stroke="#f68420" id="path7" d="m 311.52,186.93 -30.76,0.26"/>
    <path stroke="#faa31a" id="path8" d="m 280.76,187.19 -0.04,-30.96 q 0,-0.49 -0.49,-0.49 l -61.45,0.01 q -0.48,0 -0.48,0.47 l 0.01,61.94"/>
    <path stroke="#f68420" id="path9" d="m 218.31,218.16 -30.79,0.05 q -0.52,0.01 -0.52,0.53 v 30.43"/>
    <path stroke="#f8951c" id="path10" d="m 187,249.17 -31.11,0.04"/>
    <path stroke="#f68420" id="path11" d="m 155.89,249.21 0.3,-31.23"/>
    <path stroke="#f57b21" id="path12" d="m 156.19,217.98 30.23,-0.03 q 0.59,0 0.59,-0.59 l 0.07,-30.38"/>
    <path stroke="#f47221" id="path13" d="m 187.08,186.98 0.01,-31.19"/>
    <path stroke="#e15524" id="path14" d="m 187.09,155.79 0.05,-30.29"/>
    <path stroke="#db3f26" id="path15" d="m 343.46,94.22 -0.19,1.03 q -0.09,0.48 -0.09,0.96 l -0.06,28.62"/>
    <path stroke="#ee5c23" id="path16" d="m 343.12,124.83 q -1.58,-0.27 -7,-0.34 -11.28,-0.14 -22.56,0.17 c -0.48,0.01 -0.72,0.23 -1.23,0.29"/>
    <path stroke="#f06922" id="path17" d="m 250.79,63.12 q -1.31,-0.04 -1.31,0.65 0.1,14.9 -0.01,30 0,0.48 -0.49,0.48 l -29.96,0.01 q -0.72,0 -0.72,0.72 l -0.04,29.04 q 0,0.54 -0.55,0.54 -15.07,0 -29.94,-0.04 -0.6,-0.01 -0.63,0.98"/>
    <path stroke="#db3f26" id="path18" d="m 187.14,125.5 q -0.49,-0.55 -0.37,-0.87"/>
    <path stroke="#fbcd25" id="path19" d="m 218.36,280.2 0.09,30.92"/>
    <path stroke="#fdd68c" id="path20" d="m 155.95,311.51 -0.11,31.33"/>
    <path stroke="#f3ae1e" id="path21" d="m 155.84,342.84 -30,-0.2  c -0.6036 -0.0055 -1.0900 -0.4964 -1.0900 -1.1000 v -30.07"/>
    <path stroke="#f3801e" id="path22" d="M 124.75,311.47 V 280.22"/>
    <path stroke="#f8921d" id="path23" d="m 124.75,280.22 q 0.02,0.02 0.05,0.04"/>
    <path stroke="#f8911e" id="path24" d="M 343.11,218.07 311.89,218"/>
    <path stroke="#fba819" id="path25" d="m 280.76,187.19 0.01,30.21 q 0,0.56 0.56,0.56 l 30.56,0.04"/>
    <path stroke="#fcb018" id="path26" d="m 311.89,218 -0.05,30.87"/>
    <path stroke="#ffcf10" id="path27" d="m 311.84,248.87 q -9.73,0.2 -19.4,0.09 c -23.72,-0.28 -47.44,0.14 -71.15,0.05 -0.71,-0.01 -1.48,-0.29 -2.14,-0.51 q -0.46,-0.14 -0.57,0.32 l -0.22,0.91"/>
    <path stroke="#fdba16" id="path28" d="m 218.36,249.73 q -0.3,-0.37 -0.12,-0.51"/>
    <path stroke="#fba819" id="path29" d="m 218.24,249.22 0.07,-31.06"/>
    <path stroke="#f99b1c" id="path30" d="m 155.89,249.21 q -0.11,-0.02 -0.22,-0.04"/>
    <path stroke="#f8911e" id="path31" d="m 155.67,249.17 q -15.4,-0.08 -30.29,-0.11 -0.46,-0.01 -0.6,0.91"/>
    <path stroke="#f58020" id="path32" d="m 124.78,249.97 q -0.45,-0.79 -0.03,-0.72"/>
    <path stroke="#f58020" id="path33" d="m 156.19,217.98 -31.41,-0.04"/>
    <path stroke="#f99b1c" id="path34" d="M 218.24,249.22 187,249.17"/>
    <path stroke="#f36e22" id="path35" d="m 187.08,186.98 -31.16,-0.1"/>
    <path stroke="#e05124" id="path36" d="m 405.48,94.27 -0.02,29.75 q 0,0.54 0.53,0.54 l 29.22,0.01 q 0.54,0 0.54,0.53 l -0.01,61.91"/>
    <path stroke="#f57b21" id="path37" d="m 435.74,187.01 -28.32,0.02  c -0.9334 -0.0000 -1.6900 0.7566 -1.6900 1.6900 l -0.03,60.32"/>
    <path stroke="#f58020" id="path38" d="m 405.7,249.04 -31.42,0.08"/>
    <path stroke="#f8921d" id="path39" d="m 374.28,249.12 q -0.13,0.04 -0.25,0.07"/>
    <path stroke="#f57b21" id="path40" d="m 374.03,249.19 0.02,-30.44  c 0.0027 -0.2846 -0.1102 -0.5583 -0.3133 -0.7595 c -0.2031 -0.2012 -0.4794 -0.3131 -0.7667 -0.3105 l -29.97,0.5"/>
    <path stroke="#f7881f" id="path41" d="m 343,218.18 q 0.05,-0.05 0.11,-0.11"/>
    <path stroke="#f58020" id="path42" d="m 343.11,218.07 -0.06,-30.54 q 0,-0.54 -0.54,-0.54 l -30.99,-0.06"/>
    <path stroke="#f36e22" id="path43" d="m 311.87,156.09 q 14.73,-0.36 29.08,-0.22 c 0.7,0 1.43,-0.33 2.1,-0.56"/>
    <path stroke="#df4825" id="path44" d="m 187.09,155.79 -30.48,-0.04  c -0.3756 -0.0000 -0.6800 0.3044 -0.6800 0.6800 l -0.01,30.45"/>
    <path stroke="#e05124" id="path45" d="m 155.92,186.88 -30.2,-0.04 q -0.95,0 -0.95,0.95 l 0.01,30.15"/>
    <path stroke="#e15a23" id="path46" d="m 124.78,217.94 q -0.02,0.05 -0.04,0.11"/>
    <path stroke="#db3f26" id="path47" d="m 124.74,218.05 -30.27,-0.4"/>
    <path stroke="#e05124" id="path48" d="m 405.36,94.23 -30.62,0.04 q -0.5,0 -0.5,0.49 l 0.02,60.72 q 0,0.3 -0.3,0.3 -15.06,-0.02 -30.21,-0.03 -0.77,0 -0.7,-0.44"/>
    <path stroke="#df4825" id="path49" d="m 343.05,155.31 0.07,-30.48"/>
    <path stroke="#ef6523" id="path50" d="m 124.75,280.22 -30.32,0.05"/>
    <path stroke="#ef9323" id="path51" d="m 94.43,280.27 q 0.25,0.39 -0.02,-0.01"/>
    <path stroke="#ea8124" id="path52" d="m 94.43,280.27 -0.08,30.68  c 0.0000 0.2927 0.2328 0.5300 0.5200 0.5300 l 29.88,-0.01"/>
    <path stroke="#f5d792" id="path53" d="m 155.84,342.84 q 0.11,14.8 0.04,29.91 0,0.32 0.41,0.4"/>
    <path stroke="#f5bb1c" id="path54" d="m 155.92,373.86 -31.15,-0.18"/>
    <path stroke="#f3ae1e" id="path55" d="m 124.77,373.68 -30.2,0.06"/>
    <path stroke="#ef9323" id="path56" d="M 94.57,373.74 63.9,373.63 q -0.66,0 -0.66,-0.67 L 63.2,342.69"/>
    <path stroke="#fdc113" id="path57" d="m 311.89,249.53 -0.07,30.16 q 0,0.54 0.54,0.54 l 30.72,0.08"/>
    <path stroke="#ffcf10" id="path58" d="m 343.08,280.31 -0.02,30.77"/>
    <path stroke="#fbe343" id="path59" d="m 311.75,311.33 -31.12,0.14"/>
    <path stroke="#fce21f" id="path60" d="m 280.63,311.47 0.08,-30.67 q 0,-0.55 -0.54,-0.55 l -61.81,-0.05"/>
    <path stroke="#fdc113" id="path61" d="M 218.36,280.2 V 249.73"/>
    <path stroke="#fefacf" id="path62" d="m 249.36,404.21 -30.45,0.1"/>
    <path stroke="#808080" id="path63" d="m 187.07,342.48 v 30.55"/>
    <path stroke="#faa21a" id="path64" d="m 155.67,249.17 0.21,30.58 q 0.01,0.56 -0.55,0.56 l -30.53,-0.05"/>
    <path stroke="#f7881f" id="path65" d="m 124.8,280.26 -0.02,-30.29"/>
    <path stroke="#f9ee55" id="path66" d="m 280.63,311.47 -31.11,0.14"/>
    <path stroke="#faa21a" id="path67" d="m 342.97,249.18 q -13.99,-0.03 -27.97,-0.1 -1.4,-0.01 -3.11,0.45"/>
    <path stroke="#fcb715" id="path68" d="m 311.89,249.53 q 0.16,0.15 -0.05,-0.66"/>
    <path stroke="#f06e22" id="path69" d="m 124.74,218.05 0.01,31.2"/>
    <path stroke="#ef6523" id="path70" d="m 124.75,249.25 -29.66,-0.03  c -0.3645 -0.0000 -0.6600 0.2910 -0.6600 0.6500 l -0.02,30.39"/>
    <path stroke="#ea8124" id="path71" d="m 94.41,280.26 -30.59,-0.01 q -0.61,0 -0.61,0.62 l -0.01,61.82"/>
    <path stroke="#ef6523" id="path72" d="m 63.2,342.69 -30.49,-0.02 q -0.26,0 -0.42,0.21 -0.12,0.16 -0.23,0.17"/>
    <path stroke="#ef6523" id="path73" d="m 0.97,311.4 30.59,0.04 q 0.46,0 0.46,-0.46 l 0.01,-61.24 q 0,-0.54 -0.53,-0.54 L 0.97,249.17"/>
    <path stroke="#f8911e" id="path74" d="m 435.74,280.14 q -1.73,0.14 -3.47,0.31 -1.78,0.18 -3.49,0.12 -11.58,-0.42 -23.29,-0.05"/>
    <path stroke="#fba819" id="path75" d="M 405.49,280.52 374.17,280.3"/>
    <path stroke="#f99b1c" id="path76" d="m 374.17,280.3 0.11,-31.18"/>
    <path stroke="#f68420" id="path77" d="m 435.76,248.88 -30.06,0.16"/>
    <path stroke="#db3f26" id="path78" d="m 466.95,218.04 0.31,31.04"/>
    <path stroke="#e36222" id="path79" d="m 466.99,280.25 -31.25,-0.11"/>
    <path stroke="#e15a23" id="path80" d="m 435.74,280.14 0.02,-31.26"/>
    <path stroke="#e15524" id="path81" d="m 435.76,248.88 -0.02,-61.87"/>
    <path stroke="#fdba16" id="path82" d="m 374.17,280.3 -31.09,0.01"/>
    <path stroke="#f8951c" id="path83" d="m 374.03,249.19 -31.06,-0.01"/>
    <path stroke="#f78b1e" id="path84" d="m 342.97,249.18 0.03,-31"/>
    <path stroke="#fbf7bc" id="path85" d="m 311.32,314.11 q 0.42,0.53 0.43,1.39 0.29,43.82 -0.02,88.72"/>
    <path stroke="#faf28c" id="path86" d="m 311.73,404.22 -0.18,-31.06 q 0,-0.04 -0.04,-0.04 -0.03,0 -0.04,0 -0.06,0 -0.1,0.13 -0.04,0.14 -0.08,0.28 -0.08,0.22 -0.31,0.22 l -61.22,0.06"/>
    <path stroke="#feba8f" id="path87" d="m 343.05,404.3 -0.04,30.87"/>
    <path stroke="#fef8b6" id="path88" d="M 343.01,435.17 218.27,434.75"/>
    <path stroke="#feba8f" id="path89" d="m 218.27,434.75 -0.01,-30.5"/>
    <path stroke="#fdba16" id="path90" d="m 124.77,373.68 -0.09,61.41"/>
    <path stroke="#ffa349" id="path91" d="m 156.48,374.04 c -0.2,0.52 -0.41,0.77 -0.41,1.32 q -0.19,30.01 -0.1,59.86"/>
    <path stroke="#fdda22" id="path92" d="m 155.97,435.22 -0.15,31.04"/>
    <path stroke="#f8921d" id="path93" d="m 94.57,373.74 -0.12,60.8 q 0,0.59 0.59,0.59 l 29.64,-0.04"/>
    <path stroke="#fa9f1a" id="path94" d="m 124.68,435.09 0.08,30.61 q 0.01,0.55 0.56,0.55 l 30.5,0.01"/>
    <path stroke="#f7b229" id="path95" d="m 155.82,466.26 30.42,0.01  c 0.5302 0.0000 0.9600 0.4343 0.9600 0.9700 l -0.04,30.2"/>
    <path stroke="#ef6523" id="path96" d="m 62.89,435.12 0.35,-60.84 q 0,-0.52 -0.52,-0.52 l -30.69,-0.09"/>
    <path stroke="#fdba16" id="path97" d="m 435.84,311.45 0.03,29.11 q 0,0.48 0.11,0.95 l 0.27,1.08"/>
    <path stroke="#f58d1c" id="path98" d="m 436.25,342.59 q -0.48,-0.22 -0.48,0.43 -0.12,8.49 0.02,30.25 0,0.48 0.48,0.48 h 30.21 q 0.48,0 0.48,0.48 l 0.01,29.81"/>
    <path stroke="#fa9f1a" id="path99" d="m 466.97,404.04 -31.24,-0.12"/>
    <path stroke="#ffcf10" id="path100" d="m 435.73,403.92 -30.29,-0.2"/>
    <path stroke="#ffa349" id="path101" d="m 405.44,403.72 -0.1,-29.7"/>
    <path stroke="#ffe389" id="path102" d="m 405.29,373.09 0.02,-1.56"/>
    <path stroke="#804040" id="path103" d="m 218.08,373.72 -31.03,0.14"/>
    <path stroke="#f27620" id="path104" d="m 466.99,280.25 0.04,31.13"/>
    <path stroke="#faa21a" id="path105" d="m 466.97,311.43 -31.13,0.02"/>
    <path stroke="#fcb018" id="path106" d="m 435.84,311.45 h -29.29  c -0.6075 0.0000 -1.1000 -0.4925 -1.1000 -1.1000 l 0.04,-29.83"/>
    <path stroke="#808080" id="path107" d="m 343.05,342.48 v 31.36"/>
    <path stroke="#ffbfbf" id="path108" d="M 343.05,373.84 V 404.3"/>
    <path stroke="#fefacf" id="path109" d="m 343.05,404.3 -31.32,-0.08"/>
    <path stroke="#fdf47f" id="path110" d="m 374.23,435.2 -0.01,30.56 q 0,0.5 -0.5,0.5 l -29.98,0.03  c -0.1848 -0.0000 -0.3618 0.0730 -0.4915 0.2027 c -0.1297 0.1297 -0.2012 0.3052 -0.1985 0.4873 q 0.05,13.54 -0.03,27.27 0,1.2 -0.8,1.02"/>
    <path stroke="#fdf47f" id="path111" d="m 218.53,497.26 -0.18,-30.13 q 0,-0.86 -0.86,-0.86 l -29.74,0.02  c -0.2888 0.0001 -0.5246 -0.2312 -0.5300 -0.5200 l -0.15,-30.57"/>
    <path stroke="#ffbda6" id="path112" d="m 218.27,434.75 q 0.09,0.44 -0.52,0.43 -15.49,-0.17 -30.68,0.02"/>
    <path stroke="#fdb658" id="path113" d="m 187.07,435.2 -31.1,0.02"/>
    <path stroke="#ffab46" id="path114" d="m 405.44,403.72 -0.02,31.46"/>
    <path stroke="#fdb658" id="path115" d="m 405.42,435.18 -31.19,0.02"/>
    <path stroke="#ffbda6" id="path116" d="m 374.23,435.2 -31.22,-0.03"/>
    <path stroke="#f3801e" id="path117" d="m 466.97,342.58 -30.72,0.01"/>
    <path stroke="#ef6523" id="path118" d="m 498,404.11 -31.03,-0.07"/>
    <path stroke="#f9a717" id="path119" d="m 435.73,403.92 -0.02,30.7 q 0,0.58 -0.58,0.58 l -29.7,0.01"/>
    <path stroke="#fce21f" id="path120" d="m 405.43,435.21 q -0.29,-0.35 -0.01,-0.03"/>
    <path stroke="#ef6523" id="path121" d="m 466.99,466.3 q 0.01,0.01 0.02,0.01"/>
    <path stroke="#f7b229" id="path122" d="m 374.26,497.42 0.02,-30.67  c -0.0000 -0.2706 0.2194 -0.4900 0.4900 -0.4900 l 30.22,0.01 q 0.44,0 0.44,-0.44 v -30.62"/>
    <path stroke="#804040" id="path123" d="m 374.12,373.85 -31.07,-0.01"/>
   </g>
   <path fill="#cc2b27" id="path124" d="m 342.99,63.13 -62.25,-0.08 -29.95,0.07 -1.25,-0.61 V 32.49 q 0,-0.47 0.47,-0.47 l 61.46,0.01 q 0.5,0 0.5,-0.5 L 311.96,1.49 q 0,-0.55 0.55,-0.55 l 29.98,-0.01 q 0.5,0 0.5,0.51 z"/>
   <path fill="#ea5324" id="path125" d="m 249.54,62.51 1.25,0.61 q -1.31,-0.04 -1.31,0.65 0.1,14.9 -0.01,30 0,0.48 -0.49,0.48 l -29.96,0.01 q -0.72,0 -0.72,0.72 l -0.04,29.04 q 0,0.54 -0.55,0.54 -15.07,0 -29.94,-0.04 -0.6,-0.01 -0.63,0.98 -0.49,-0.55 -0.37,-0.87 0.12,-0.05 0.23,-0.1 0.08,-0.04 0.08,-0.12 -0.02,-14.87 0.02,-29.73  c -0.0000 -0.2375 0.1925 -0.4300 0.4300 -0.4300 h 30 q 0.78,0 0.78,-0.78 V 63.75 q 0,-0.59 0.59,-0.6 15.13,-0.11 30.07,0.05 0.32,0 0.46,-0.15 0.17,-0.2 0.11,-0.54 z"/>
   <rect width="31.139999" x="32.029999" y="63.16" fill="#ea5324" rx="0.33000001" height="61.380001" id="rect125"/>
   <rect width="31.16" x="124.78" y="63.119999" fill="#ea5324" rx="0.33000001" height="31.120001" id="rect126"/>
   <path fill="#f57e20" id="path126" d="m 280.74,63.05 0.05,60.89 q 0,0.53 0.53,0.53 15.02,0.07 29.92,0.01 0.53,-0.01 1.09,0.47 -0.39,0.75 -0.4,1.55 -0.21,15.04 -0.06,29.59 l -0.35,30.84 -30.76,0.26 -0.04,-30.96 q 0,-0.49 -0.49,-0.49 l -61.45,0.01 q -0.48,0 -0.48,0.47 l 0.01,61.94 -30.79,0.05 q -0.52,0.01 -0.52,0.53 v 30.43 l -31.11,0.04 0.3,-31.23 30.23,-0.03 q 0.59,0 0.59,-0.59 l 0.07,-30.38 0.01,-31.19 0.05,-30.29 q 0.03,-0.99 0.63,-0.98 14.87,0.04 29.94,0.04 0.55,0 0.55,-0.54 l 0.04,-29.04 q 0,-0.72 0.72,-0.72 l 29.96,-0.01 q 0.49,0 0.49,-0.48 0.11,-15.1 0.01,-30 0,-0.69 1.31,-0.65 z"/>
   <path fill="#ea5324" id="path127" d="m 342.99,63.13 q 0.07,15.13 -0.01,30.69 0,0.21 0.08,0.34 0.19,0.28 0.4,0.06 l -0.19,1.03 q -0.09,0.48 -0.09,0.96 l -0.06,28.62 q -1.58,-0.27 -7,-0.34 -11.28,-0.14 -22.56,0.17 c -0.48,0.01 -0.72,0.23 -1.23,0.29 q -0.56,-0.48 -1.09,-0.47 -14.9,0.06 -29.92,-0.01 -0.53,0 -0.53,-0.53 l -0.05,-60.89 z"/>
   <path fill="#cc2b27" id="path128" d="m 405.36,94.23 -30.62,0.04 q -0.5,0 -0.5,0.49 l 0.02,60.72 q 0,0.3 -0.3,0.3 -15.06,-0.02 -30.21,-0.03 -0.77,0 -0.7,-0.44 l 0.07,-30.48 0.06,-28.62 q 0,-0.48 0.09,-0.96 l 0.19,-1.03 30.3,-0.01 q 0.48,0 0.48,-0.49 l 0.01,-29.97 q 0,-0.57 0.57,-0.57 h 30.17 q 0.39,0 0.39,0.39 z"/>
   <path fill="#f47721" id="path129" d="m 405.36,94.23 q -0.23,-0.45 0.12,0.04 l -0.02,29.75 q 0,0.54 0.53,0.54 l 29.22,0.01 q 0.54,0 0.54,0.53 l -0.01,61.91 -28.32,0.02  c -0.9334 -0.0000 -1.6900 0.7566 -1.6900 1.6900 l -0.03,60.32 -31.42,0.08 q -0.13,0.04 -0.25,0.07 l 0.02,-30.44 a 1.07,1.06 89.5 0 0 -1.08,-1.07 l -29.97,0.5 q 0.05,-0.05 0.11,-0.11 l -0.06,-30.54 q 0,-0.54 -0.54,-0.54 l -30.99,-0.06 0.35,-30.84 q 14.73,-0.36 29.08,-0.22 c 0.7,0 1.43,-0.33 2.1,-0.56 q -0.07,0.44 0.7,0.44 15.15,0.01 30.21,0.03 0.3,0 0.3,-0.3 l -0.02,-60.72 q 0,-0.49 0.5,-0.49 z"/>
   <path fill="#cc2b27" id="path130" d="m 405.48,94.27 29.79,0.01 q 0.49,0 0.49,0.49 l 0.02,29.43  c 0.0000 0.2264 0.1880 0.4100 0.4200 0.4100 l 30.28,-0.02 q 0.48,0 0.48,0.48 l -0.01,92.97 0.31,31.04 -0.27,31.17 -31.25,-0.11 0.02,-31.26 -0.02,-61.87 0.01,-61.91 q 0,-0.53 -0.54,-0.53 l -29.22,-0.01 q -0.53,0 -0.53,-0.54 z"/>
   <rect width="31.059999" x="466.98999" y="94.25" fill="#ea5324" rx="0.34" height="30.280001" id="rect130"/>
   <path fill="#cc2b27" id="path131" d="m 186.77,124.63 q -0.12,0.32 0.37,0.87 l -0.05,30.29 -30.48,-0.04  c -0.3756 -0.0000 -0.6800 0.3044 -0.6800 0.6800 l -0.01,30.45 -30.2,-0.04 q -0.95,0 -0.95,0.95 l 0.01,30.15 q -0.02,0.05 -0.04,0.11 l -30.27,-0.4 -0.01,-30.17 q 0,-0.55 0.54,-0.55 l 29.29,0.02 a 0.5,0.49 0 0 0 0.5,-0.49 l -0.03,-30.21 q 0,-0.5 0.5,-0.5 l 30.23,0.01 q 0.5,0 0.5,-0.5 v -30.03 q -0.01,-0.6 0.59,-0.6 z"/>
   <path fill="#f26522" id="path132" d="m 343.12,124.83 -0.07,30.48 c -0.67,0.23 -1.4,0.56 -2.1,0.56 q -14.35,-0.14 -29.08,0.22 -0.15,-14.55 0.06,-29.59 0.01,-0.8 0.4,-1.55 c 0.51,-0.06 0.75,-0.28 1.23,-0.29 q 11.28,-0.31 22.56,-0.17 5.42,0.07 7,0.34 z"/>
   <rect width="62.240002" x="0.93000001" y="155.75999" fill="#ea5324" rx="0.33000001" height="31.120001" id="rect132"/>
   <path fill="#f26522" id="path133" d="m 187.09,155.79 -0.01,31.19 -31.16,-0.1 0.01,-30.45  c -0.0000 -0.3756 0.3044 -0.6800 0.6800 -0.6800 z"/>
   <path fill="#ffc713" id="path134" d="m 280.76,187.19 0.01,30.21 q 0,0.56 0.56,0.56 l 30.56,0.04 -0.05,30.87 q -9.73,0.2 -19.4,0.09 c -23.72,-0.28 -47.44,0.14 -71.15,0.05 -0.71,-0.01 -1.48,-0.29 -2.14,-0.51 q -0.46,-0.14 -0.57,0.32 l -0.22,0.91 q -0.3,-0.37 -0.12,-0.51 l 0.07,-31.06 -0.01,-61.94 q 0,-0.47 0.48,-0.47 l 61.45,-0.01 q 0.49,0 0.49,0.49 z"/>
   <path fill="#f47721" id="path135" d="m 155.92,186.88 31.16,0.1 -0.07,30.38 q 0,0.59 -0.59,0.59 l -30.23,0.03 -31.41,-0.04 -0.01,-30.15 q 0,-0.95 0.95,-0.95 z"/>
   <path fill="#f6891f" id="path136" d="m 311.52,186.93 30.99,0.06 q 0.54,0 0.54,0.54 l 0.06,30.54 -31.22,-0.07 -30.56,-0.04 q -0.56,0 -0.56,-0.56 l -0.01,-30.21 z"/>
   <path fill="#f57e20" id="path137" d="m 435.74,187.01 0.02,61.87 -30.06,0.16 0.03,-60.32  c -0.0000 -0.9334 0.7566 -1.6900 1.6900 -1.6900 z"/>
   <path fill="#f57e20" id="path138" d="m 374.03,249.19 -31.06,-0.01 0.03,-31 29.97,-0.5  c 0.2873 -0.0027 0.5636 0.1092 0.7667 0.3105 c 0.2031 0.2012 0.3160 0.4750 0.3133 0.7595 z"/>
   <path fill="#ea5324" id="path139" d="m 94.47,217.65 30.27,0.4 0.01,31.2 -29.66,-0.03  c -0.3645 -0.0000 -0.6600 0.2910 -0.6600 0.6500 l -0.02,30.39 -30.59,-0.01 q -0.61,0 -0.61,0.62 l -0.01,61.82 -30.49,-0.02 q -0.26,0 -0.42,0.21 -0.12,0.16 -0.23,0.17 0.07,-0.53 -0.32,-0.53 -15.06,0.08 -30.25,-0.01 -0.53,0 -0.53,-0.53 l 0.01,-30.58 30.59,0.04 q 0.46,0 0.46,-0.46 l 0.01,-61.24 q 0,-0.54 -0.53,-0.54 L 0.97,249.17 0.95,218.56 Q 0.95,218 1.5,218 h 30 q 0.5,0 0.5,0.5 v 30.08 q 0,0.59 0.58,0.59 l 30.18,0.04 q 0.47,0 0.47,-0.47 l 0.01,-30.22 q 0,-0.48 0.48,-0.49 z"/>
   <path fill="#f6891f" id="path140" d="m 124.78,217.94 31.41,0.04 -0.3,31.23 q -0.11,-0.02 -0.22,-0.04 -15.4,-0.08 -30.29,-0.11 -0.46,-0.01 -0.6,0.91 -0.45,-0.79 -0.03,-0.72 l -0.01,-31.2 q 0.02,-0.06 0.04,-0.11 z"/>
   <path fill="#f9981c" id="path141" d="m 343.11,218.07 q -0.06,0.06 -0.11,0.11 l -0.03,31 q -13.99,-0.03 -27.97,-0.1 -1.4,-0.01 -3.11,0.45 0.16,0.15 -0.05,-0.66 L 311.89,218 Z"/>
   <path fill="#f6891f" id="path142" d="m 218.31,218.16 -0.07,31.06 -31.24,-0.05 v -30.43 q 0,-0.52 0.52,-0.53 z"/>
   <path fill="#ea5324" id="path143" d="m 466.95,218.04 30.61,-0.01 q 0.47,0 0.48,0.48 l 0.01,30.24 q 0,0.32 -0.32,0.32 l -30.47,0.01 z"/>
   <path fill="#fed60d" id="path144" d="m 311.84,248.87 q 0.21,0.81 0.05,0.66 l -0.07,30.16 q 0,0.54 0.54,0.54 l 30.72,0.08 -0.02,30.77 -31.31,0.25 -31.12,0.14 0.08,-30.67 q 0,-0.55 -0.54,-0.55 l -61.81,-0.05 v -30.47 l 0.22,-0.91 q 0.11,-0.46 0.57,-0.32 c 0.66,0.22 1.43,0.5 2.14,0.51 23.71,0.09 47.43,-0.33 71.15,-0.05 q 9.67,0.11 19.4,-0.09 z"/>
   <path fill="#f6891f" id="path145" d="m 435.76,248.88 -0.02,31.26 q -1.73,0.14 -3.47,0.31 -1.78,0.18 -3.49,0.12 -11.58,-0.42 -23.29,-0.05 l -31.32,-0.22 0.11,-31.18 31.42,-0.08 z"/>
   <path fill="#f47721" id="path146" d="m 0.97,249.17 30.53,0.03 q 0.53,0 0.53,0.54 l -0.01,61.24 q 0,0.46 -0.46,0.46 L 0.97,311.4 Z"/>
   <path fill="#f9981c" id="path147" d="m 155.67,249.17 0.21,30.58 q 0.01,0.56 -0.55,0.56 l -30.53,-0.05 -0.02,-30.29 q 0.14,-0.92 0.6,-0.91 14.89,0.03 30.29,0.11 z"/>
   <path fill="#fbac18" id="path148" d="m 218.24,249.22 q -0.18,0.14 0.12,0.51 v 30.47 l 0.09,30.92 -62.5,0.39 -0.11,31.33 -30,-0.2  c -0.6036 -0.0055 -1.0900 -0.4964 -1.0900 -1.1000 v -30.07 -31.25 q 0.02,0.02 0.05,0.04 l 30.53,0.05 q 0.56,0 0.55,-0.56 l -0.21,-30.58 q 0.11,0.02 0.22,0.04 L 187,249.17 Z"/>
   <path fill="#fbac18" id="path149" d="m 342.97,249.18 31.06,0.01 q 0.12,-0.03 0.25,-0.07 l -0.11,31.18 -31.09,0.01 -30.72,-0.08 q -0.54,0 -0.54,-0.54 l 0.07,-30.16 q 1.71,-0.46 3.11,-0.45 13.98,0.07 27.97,0.1 z"/>
   <path fill="#f47721" id="path150" d="m 124.75,249.25 q -0.42,-0.07 0.03,0.72 l 0.02,30.29 q -0.03,-0.02 -0.05,-0.04 l -30.32,0.05 q 0.25,0.39 -0.02,-0.01 l 0.02,-30.39  c -0.0000 -0.3590 0.2955 -0.6500 0.6600 -0.6500 z"/>
   <path fill="#f9981c" id="path151" d="m 435.74,280.14 31.25,0.11 0.04,31.13 q -0.03,0.03 -0.06,0.05 l -31.13,0.02 h -29.29  c -0.6075 0.0000 -1.1000 -0.4925 -1.1000 -1.1000 l 0.04,-29.83 q 11.71,-0.37 23.29,0.05 1.71,0.06 3.49,-0.12 1.74,-0.17 3.47,-0.31 z"/>
   <path fill="#faed31" id="path152" d="m 218.36,280.2 61.81,0.05 q 0.54,0 0.54,0.55 l -0.08,30.67 -31.11,0.14 q -1.04,-0.5 -1.6,-0.5 -14.32,-0.03 -29.47,0.01 z"/>
   <path fill="#ffc713" id="path153" d="m 374.17,280.3 31.32,0.22 -0.04,29.83  c 0.0000 0.6075 0.4925 1.1000 1.1000 1.1000 h 29.29 l 0.03,29.11 q 0,0.48 0.11,0.95 l 0.27,1.08 q -0.48,-0.22 -0.48,0.43 -0.12,8.49 0.02,30.25 0,0.48 0.48,0.48 h 30.21 q 0.48,0 0.48,0.48 l 0.01,29.81 -31.24,-0.12 -30.29,-0.2 -0.1,-29.7 -0.05,-0.93 0.02,-1.56 0.17,0.75 a 0.14,0.14 0 0 0 0.27,-0.04 v -59 q 0,-2.13 -2.13,-2.13 l -60.56,-0.03 0.02,-30.77 z"/>
   <path fill="#eaaf24" id="path154" d="m 94.41,280.26 q 0.27,0.4 0.02,0.01 l -0.08,30.68  c 0.0000 0.2927 0.2328 0.5300 0.5200 0.5300 l 29.88,-0.01 v 30.07 a 1.1,1.1 0 0 0 1.09,1.1 l 30,0.2 q 0.11,14.8 0.04,29.91 0,0.32 0.41,0.4 -0.31,0.21 -0.37,0.71 l -31.15,-0.18 -30.2,0.06 -30.67,-0.11 q -0.66,0 -0.66,-0.67 l -0.04,-30.27 0.01,-61.82 q 0,-0.62 0.61,-0.62 z"/>
   <path fill="#ea5324" id="path155" d="m 124.75,280.22 v 31.25 l -29.88,0.01  c -0.2872 -0.0000 -0.5200 -0.2373 -0.5200 -0.5300 l 0.08,-30.68 z"/>
   <path fill="#ea5324" id="path156" d="m 466.99,280.25 30.59,0.04 q 0.47,0 0.47,0.47 l -0.01,30.02 q 0,0.59 -0.59,0.59 l -30.42,0.01 z"/>
   <path fill="#f7ef79" id="path157" d="m 311.75,311.33 q -1.39,1.63 -0.43,2.78 0.42,0.53 0.43,1.39 0.29,43.82 -0.02,88.72 l -0.18,-31.06 q 0,-0.04 -0.04,-0.04 -0.03,0 -0.04,0 -0.06,0 -0.1,0.13 -0.04,0.14 -0.08,0.28 -0.08,0.22 -0.31,0.22 l -61.22,0.06 0.11,-61.19 q 0,-0.28 -0.12,-0.53 l -0.23,-0.48 31.11,-0.14 z"/>
   <path fill="#fbac18" id="path158" d="m 466.97,311.43 v 31.15 l -30.72,0.01 -0.27,-1.08 q -0.11,-0.47 -0.11,-0.95 l -0.03,-29.11 z"/>
   <path fill="#ffffff" id="path159" d="m 155.95,311.51 92.53,0.17  c 0.4474 0.0000 0.8100 0.3626 0.8100 0.8100 l 0.07,91.72 -30.45,0.1 V 342.6 q 0,-0.42 -0.43,-0.42 l -31.41,0.3 v 30.55 l -30.78,0.12 q -0.41,-0.08 -0.41,-0.4 0.07,-15.11 -0.04,-29.91 z"/>
   <path fill="#ffffff" id="path160" d="m 405.31,371.53 -0.02,1.56 -29.87,-0.03  c -0.3038 0.0000 -0.5500 -0.2462 -0.5500 -0.5500 v -29.74 q 0,-0.5 -0.49,-0.49 l -31.33,0.2 v 31.36 30.46 l -31.32,-0.08 q 0.31,-44.9 0.02,-88.72 -0.01,-0.86 -0.43,-1.39 l 0.02,-1 a 1.43,1.43 0 0 1 1.43,-1.39 h 91.73 a 0.88,0.87 90 0 1 0.87,0.88 z"/>
   <path fill="#f47721" id="path161" d="m 63.2,342.69 0.04,30.27 q 0,0.67 0.66,0.67 l 30.67,0.11 -0.12,60.8 q 0,0.59 0.59,0.59 l 29.64,-0.04 0.08,30.61 q 0.01,0.55 0.56,0.55 l 30.5,0.01 30.42,0.01  c 0.5302 0.0000 0.9600 0.4343 0.9600 0.9700 l -0.04,30.2 -92.24,0.02 a 0.47,0.47 0 0 1 -0.47,-0.47 l -0.01,-30.01 a 0.72,0.71 90 0 0 -0.71,-0.72 l -29.97,0.01 q -0.51,0 -0.51,-0.51 l -0.36,-30.64 0.35,-60.84 q 0,-0.52 -0.52,-0.52 l -30.69,-0.09 0.03,-30.62 q 0.11,-0.01 0.23,-0.17 0.16,-0.21 0.42,-0.21 z"/>
   <path fill="#ea5324" id="path162" d="m 436.25,342.59 30.72,-0.01 30.47,0.1 q 0.57,0 0.57,0.57 l -0.01,60.86 -31.03,-0.07 -0.01,-29.81 q 0,-0.48 -0.48,-0.48 h -30.21 q -0.48,0 -0.48,-0.48 -0.14,-21.76 -0.02,-30.25 0,-0.65 0.48,-0.43 z"/>
   <path fill="#000000" id="path163" d="m 187.07,342.48 30.49,0.24  c 0.1503 -0.0000 0.2942 0.0603 0.3996 0.1675 c 0.1053 0.1072 0.1631 0.2522 0.1604 0.4025 l -0.04,30.43 -31.03,0.14 q -0.15,-0.87 0.02,-0.83 z"/>
   <path fill="#000000" id="path164" d="m 343.05,342.48 30.35,0.25  c 0.3976 0.0000 0.7200 0.3224 0.7200 0.7200 v 30.4 l -31.07,-0.01 z"/>
   <path fill="#fcf49f" id="path165" d="m 311.73,404.22 31.32,0.08 -0.04,30.87 -124.74,-0.42 -0.01,-30.5 0.65,0.06 30.45,-0.1 0.4,-30.4 61.22,-0.06 q 0.23,0 0.31,-0.22 0.04,-0.14 0.08,-0.28 0.04,-0.13 0.1,-0.13 0.01,0 0.04,0 0.04,0 0.04,0.04 z"/>
   <path fill="#ea5324" id="path166" d="m 32.03,373.67 30.69,0.09 q 0.52,0 0.52,0.52 l -0.35,60.84 -30.32,0.03 q -0.57,0 -0.57,0.57 v 30.04 q 0,0.5 -0.51,0.5 H 1.47  c -0.2982 0.0000 -0.5400 -0.2418 -0.5400 -0.5400 l 0.02,-29.71 q 0,-0.78 0.79,-0.78 l 29.75,-0.02 q 0.53,0 0.53,-0.53 z"/>
   <path fill="#fbac18" id="path167" d="m 124.77,373.68 -0.09,61.41 -29.64,0.04 q -0.59,0 -0.59,-0.59 l 0.12,-60.8 z"/>
   <path fill="#ffc713" id="path168" d="m 155.92,373.86 q 0.6,0.79 0.56,0.18 c -0.2,0.52 -0.41,0.77 -0.41,1.32 q -0.19,30.01 -0.1,59.86 l -0.15,31.04 -30.5,-0.01 q -0.55,0 -0.56,-0.55 l -0.08,-30.61 0.09,-61.41 z"/>
   <path fill="#ff7f7f" id="path169" d="m 218.08,373.72 0.18,30.53 0.01,30.5 q 0.09,0.44 -0.52,0.43 -15.49,-0.17 -30.68,0.02 l -31.1,0.02 q -0.09,-29.85 0.1,-59.86 c 0,-0.55 0.21,-0.8 0.41,-1.32 l 30.57,-0.18 z"/>
   <path fill="#ff7f7f" id="path170" d="m 374.12,373.85 31.22,0.17 0.1,29.7 -0.02,31.46 -31.19,0.02 -31.22,-0.03 0.04,-30.87 v -30.46 z"/>
   <path fill="#fed60d" id="path171" d="m 405.44,403.72 30.29,0.2 -0.02,30.7 q 0,0.58 -0.58,0.58 l -29.7,0.01 q -0.29,-0.35 -0.01,-0.03 z"/>
   <path fill="#f47721" id="path172" d="m 466.97,404.04 31.03,0.07 0.02,30.49 q 0,0.53 -0.53,0.53 l -29.98,0.01 q -0.53,0 -0.53,0.53 l 0.01,30.63 q 0.01,0.01 0.02,0.01 l -30.56,-0.01  c -0.3811 -0.0000 -0.6900 0.3089 -0.6900 0.6900 l 0.03,29.99 q 0,0.48 -0.48,0.48 l -61.05,-0.04 0.02,-30.67 a 0.49,0.49 0 0 1 0.49,-0.49 l 30.22,0.01 q 0.44,0 0.44,-0.44 v -30.62 l 29.7,-0.01 q 0.58,0 0.58,-0.58 l 0.02,-30.7 z"/>
   <path fill="#fffbcc" id="path173" d="m 218.27,434.75 124.74,0.42 31.22,0.03 -0.01,30.56 q 0,0.5 -0.5,0.5 l -29.98,0.03  c -0.1848 -0.0000 -0.3618 0.0730 -0.4915 0.2027 c -0.1297 0.1297 -0.2012 0.3052 -0.1985 0.4873 q 0.05,13.54 -0.03,27.27 0,1.2 -0.8,1.02 -0.47,2.08 -4.09,2.11 -59.79,0.34 -119.6,-0.12 l -0.18,-30.13 q 0,-0.86 -0.86,-0.86 l -29.74,0.02 a 0.53,0.53 0 0 1 -0.53,-0.52 l -0.15,-30.57 q 15.19,-0.19 30.68,-0.02 0.61,0.01 0.52,-0.43 z"/>
   <path fill="#faed31" id="path174" d="m 405.42,435.18 q -0.28,-0.32 0.01,0.03 v 30.62 q 0,0.44 -0.44,0.44 l -30.22,-0.01  c -0.2706 -0.0000 -0.4900 0.2194 -0.4900 0.4900 l -0.02,30.67 -30.73,0.04 q -0.57,0 -0.75,-0.54 l -0.56,-1.65 q 0.8,0.18 0.8,-1.02 0.08,-13.73 0.03,-27.27 a 0.69,0.68 -0.4 0 1 0.69,-0.69 l 29.98,-0.03 q 0.5,0 0.5,-0.5 l 0.01,-30.56 z"/>
   <path fill="#faed31" id="path175" d="m 155.97,435.22 31.1,-0.02 0.15,30.57  c 0.0054 0.2888 0.2412 0.5201 0.5300 0.5200 l 29.74,-0.02 q 0.86,0 0.86,0.86 l 0.18,30.13 -31.37,0.18 0.04,-30.2 a 0.97,0.96 -90 0 0 -0.96,-0.97 l -30.42,-0.01 z"/>
   <path fill="#ea5324" id="path176" d="m 466.99,466.3 30.59,0.01 q 0.47,0 0.47,0.47 l -0.01,30.04 q 0,0.6 -0.61,0.61 l -29.92,0.05 q -0.5,0 -0.5,-0.5 v -30.67 q -0.01,0 -0.02,-0.01 z"/>
  </g>
 </g>
</svg>
